<?xml version="1.0" encoding="UTF-8" standalone="no"?>
<svg
   xmlns:dc="http://purl.org/dc/elements/1.1/"
   xmlns:cc="http://creativecommons.org/ns#"
   xmlns:rdf="http://www.w3.org/1999/02/22-rdf-syntax-ns#"
   xmlns:svg="http://www.w3.org/2000/svg"
   xmlns="http://www.w3.org/2000/svg"
   xmlns:sodipodi="http://sodipodi.sourceforge.net/DTD/sodipodi-0.dtd"
   xmlns:inkscape="http://www.inkscape.org/namespaces/inkscape"
   width="166.94106mm"
   height="182.13861mm"
   viewBox="0 0 166.94106 182.13861"
   version="1.1"
   id="svg460"
   inkscape:version="1.0.2-2 (e86c870879, 2021-01-15)"
   sodipodi:docname="Liritech-logo.svg">
  <defs
     id="defs454" />
  <sodipodi:namedview
     id="base"
     pagecolor="#ffffff"
     bordercolor="#666666"
     borderopacity="1.0"
     inkscape:pageopacity="0.0"
     inkscape:pageshadow="2"
     inkscape:zoom="0.35"
     inkscape:cx="83.527899"
     inkscape:cy="511.08433"
     inkscape:document-units="mm"
     inkscape:current-layer="layer1"
     inkscape:document-rotation="0"
     showgrid="false"
     inkscape:window-width="771"
     inkscape:window-height="696"
     inkscape:window-x="593"
     inkscape:window-y="0"
     inkscape:window-maximized="0" />
  <metadata
     id="metadata457">
    <rdf:RDF>
      <cc:Work
         rdf:about="">
        <dc:format>image/svg+xml</dc:format>
        <dc:type
           rdf:resource="http://purl.org/dc/dcmitype/StillImage" />
        <dc:title></dc:title>
      </cc:Work>
    </rdf:RDF>
  </metadata>
  <g
     inkscape:label="Layer 1"
     inkscape:groupmode="layer"
     id="layer1"
     transform="translate(-27.654471,-59.365218)">
    <path
       style="fill:#333333;fill-opacity:1;stroke:none;stroke-width:0.194791px;stroke-linecap:butt;stroke-linejoin:miter;stroke-opacity:1"
       d="m 87.52667,198.97903 -7.36355,9.73316 9.73369,7.36368 17.84553,13.50018 7.36355,-9.73316 -14.26849,-10.79456 -3.56697,-2.69874 -9.73356,-7.3642 z"
       id="path756" />
    <path
       id="path754"
       style="fill:#333333;fill-opacity:1;stroke:none;stroke-width:0.736218px;stroke-linecap:butt;stroke-linejoin:miter;stroke-opacity:1"
       d="M 127.52344 384.24023 L 48.609375 493.43359 C 44.151422 498.36554 41.576978 500.94516 36.376953 501.82617 C 19.646459 504.68455 5.4143268 517.20617 1.2128906 534.74023 C -4.4132385 558.21613 10.057197 581.80784 33.533203 587.43359 C 57.009134 593.05972 80.600358 578.58917 86.226562 555.11328 C 88.21535 546.81491 87.694088 538.5014 85.150391 530.97266 C 83.493899 525.47522 84.972695 522.05399 87.308594 518.64062 L 89.513672 515.58789 L 184.38867 384.3125 L 127.52344 384.24023 z M 43.744141 515.25 C 46.265962 515.20812 48.834274 515.4807 51.400391 516.0957 C 67.823647 520.03144 77.945766 536.53385 74.009766 552.95703 C 70.074144 569.37942 53.570825 579.50218 37.148438 575.56641 C 20.726012 571.63105 10.602508 555.12769 14.537109 538.70508 C 17.85779 524.84796 30.126304 515.47614 43.744141 515.25 z "
       transform="matrix(0.26458333,0,0,0.26458333,27.654471,59.365218)" />
    <path
       style="fill:#333333;fill-opacity:1;stroke:none;stroke-width:0.194791px;stroke-linecap:butt;stroke-linejoin:miter;stroke-opacity:1"
       d="m 153.19365,161.14421 -15.30226,-0.019 -10.20543,13.46176 -0.009,-0.006 -7.36367,9.73368 9.73315,7.36355 17.84554,13.50019 7.36368,-9.73369 -17.83546,-13.4933 z"
       id="path2392-5-6-7-1" />
    <path
       id="path783"
       style="fill:#7137c8;fill-opacity:1;stroke:none;stroke-width:0.736218px;stroke-linecap:butt;stroke-linejoin:miter;stroke-opacity:1"
       d="M 213.00781 431.64648 L 185.17773 468.43164 L 134.1543 535.88086 L 170.94336 563.71094 L 221.94141 496.30273 L 409.66602 638.61523 C 414.49391 643.18397 417.01152 645.81669 417.77344 651.03516 C 420.24873 667.82654 432.44159 682.33826 449.875 686.93945 C 473.2163 693.10065 497.13403 679.17337 503.29492 655.83203 C 509.45619 632.49095 495.52869 608.57549 472.1875 602.41406 C 463.9366 600.23626 455.61417 600.56856 448.0293 602.93945 C 442.50816 604.46638 439.12287 602.91963 435.77148 600.51562 L 249.77148 459.51172 L 249.79883 459.47656 L 213.00781 431.64648 z M 462.11914 613.55859 C 464.64127 613.5744 467.20251 613.90465 469.75391 614.57812 C 486.08207 618.88803 495.82185 635.62117 491.51172 651.94922 C 487.20177 668.27738 470.47487 678.01998 454.14648 673.71094 C 437.81753 669.40084 428.07237 652.66876 432.38281 636.33984 C 436.01946 622.56229 448.49964 613.47322 462.11914 613.55859 z "
       transform="matrix(0.26458333,0,0,0.26458333,27.654471,59.365218)" />
    <path
       style="fill:#7137c8;fill-opacity:1;stroke:none;stroke-width:0.194791px;stroke-linecap:butt;stroke-linejoin:miter;stroke-opacity:1"
       d="m 54.04041,161.0198 -15.28936,-0.0192 9.73316,7.36355 z"
       id="path781" />
    <path
       style="fill:#7137c8;fill-opacity:1;stroke:none;stroke-width:0.194791px;stroke-linecap:butt;stroke-linejoin:miter;stroke-opacity:1"
       d="m 177.72264,161.17541 -15.28937,-0.0192 -1.80748,2.38938 -13.50018,17.84553 9.73316,7.36355 10.79456,-14.2685 2.69875,-3.56696 7.3642,-9.73356 0.007,-0.01 z"
       id="path2392-3-9-6-7-3" />
    <path
       style="fill:#333333;fill-opacity:1;stroke:none;stroke-width:0.194791px;stroke-linecap:butt;stroke-linejoin:miter;stroke-opacity:1"
       d="m 72.373472,94.87447 -7.13927,9.89912 18.139431,13.08214 -15.628662,21.62564 15.045493,0.0189 10.482817,-14.5051 0.0096,0.007 7.139269,-9.89912 -9.899119,-7.13927 z"
       id="path767" />
    <path
       style="fill:#333333;fill-opacity:1;stroke:none;stroke-width:0.194791px;stroke-linecap:butt;stroke-linejoin:miter;stroke-opacity:1"
       d="m 114.2671,69.057509 -7.36356,9.73317 9.73369,7.363669 17.84553,13.500184 7.36356,-9.733161 -14.2685,-10.794552 -3.56696,-2.698747 -9.73356,-7.364202 z"
       id="path763" />
    <path
       id="path2763-8-6-69-9"
       style="fill:#333333;fill-opacity:1;stroke:none;stroke-width:0.736218px;stroke-linecap:butt;stroke-linejoin:miter;stroke-opacity:1"
       d="M 587.47852 99.064453 C 568.01062 98.942606 550.17328 111.93481 544.97461 131.62891 C 542.79685 139.87968 543.1291 148.20222 545.5 155.78711 C 547.02689 161.30817 545.48209 164.69358 543.07812 168.04492 L 440.64453 303.16602 L 498.47852 303.23828 L 581.17578 194.15234 C 585.74451 189.32445 588.37532 186.8068 593.59375 186.04492 C 610.38513 183.56963 624.89884 171.37669 629.5 153.94336 C 635.66123 130.60207 621.73388 106.68628 598.39258 100.52539 L 598.39258 100.52344 C 594.74552 99.560735 591.08368 99.087017 587.47852 99.064453 z M 586.875 111.28516 C 589.39706 111.30101 591.9585 111.63123 594.50977 112.30469 C 610.83793 116.61463 620.58049 133.3435 616.27148 149.67188 C 611.96131 166.0009 595.22931 175.74399 578.90039 171.43359 C 562.57143 167.1235 552.82835 150.39327 557.13867 134.06445 C 560.77516 120.28757 573.25588 111.19956 586.875 111.28516 z "
       transform="matrix(0.26458333,0,0,0.26458333,27.654471,59.365218)" />
    <path
       style="fill:#7137c8;fill-opacity:1;stroke:none;stroke-width:0.194791px;stroke-linecap:butt;stroke-linejoin:miter;stroke-opacity:1"
       d="m 65.964941,111.87387 -7.363681,9.73369 -13.500181,17.84553 15.289363,0.0192 5.238358,-6.92418 2.69874,-3.56697 7.364207,-9.73356 0.0069,-0.0101 z"
       id="path776" />
    <path
       style="fill:#7137c8;fill-opacity:1;stroke:none;stroke-width:0.194791px;stroke-linecap:butt;stroke-linejoin:miter;stroke-opacity:1"
       d="m 174.3395,132.26439 -5.5562,7.34431 15.28988,0.0194 z"
       id="path774" />
    <path
       id="path2765-7-9-5-7"
       style="fill:#7137c8;fill-opacity:1;stroke:none;stroke-width:0.736218px;stroke-linecap:butt;stroke-linejoin:miter;stroke-opacity:1"
       d="M 163.57227 0.005859375 C 144.10637 0.32916119 126.56905 13.725339 121.82227 33.533203 C 116.19614 57.009119 130.66669 80.600362 154.14258 86.226562 C 162.44095 88.215395 170.75446 87.694058 178.2832 85.150391 C 183.78064 83.49393 187.20188 84.972865 190.61523 87.308594 L 193.66797 89.513672 L 379.76758 224.00781 L 379.74023 224.04492 L 417.1543 251.0293 L 444.14062 213.61523 L 493.60742 145.01758 L 456.19336 118.03516 L 406.75 186.59375 L 215.82227 48.609375 C 210.89033 44.151456 208.31068 41.579037 207.42969 36.378906 C 204.57143 19.64848 192.04967 5.4163367 174.51562 1.2148438 L 174.51758 1.2128906 C 170.84947 0.33379496 167.17706 -0.054011331 163.57227 0.005859375 z M 162.89648 13.693359 C 165.4182 13.651325 167.98474 13.922344 170.55078 14.537109 C 186.974 18.472826 197.09818 34.977176 193.16211 51.400391 C 189.22653 67.823644 172.72198 77.945777 156.29883 74.009766 C 139.87645 70.07414 129.7536 53.570776 133.68945 37.148438 C 137.00987 23.292016 149.27921 13.920347 162.89648 13.693359 z "
       transform="matrix(0.26458333,0,0,0.26458333,27.654471,59.365218)" />
    <path
       d="m 123.5767,155.08293 -3.8e-4,0.54621 q -0.31874,-0.15271 -0.6015,-0.22777 -0.28276,-0.0751 -0.54617,-0.0753 -0.45748,-3.2e-4 -0.70714,0.17696 -0.24689,0.17728 -0.24712,0.50445 -1.9e-4,0.27449 0.1633,0.416 0.16627,0.13876 0.62647,0.22503 l 0.33821,0.0695 q 0.62653,0.11967 0.923,0.42209 0.29924,0.29965 0.29889,0.80427 -4.2e-4,0.60167 -0.40544,0.91193 -0.40225,0.31025 -1.18137,0.30971 -0.2939,-2e-4 -0.62656,-0.0669 -0.32991,-0.0667 -0.68472,-0.19734 l 4e-4,-0.57671 q 0.34091,0.19155 0.66801,0.28882 0.32711,0.0972 0.64319,0.0975 0.47967,3.3e-4 0.74043,-0.18803 0.26076,-0.18836 0.261,-0.53772 2.1e-4,-0.30499 -0.18821,-0.47702 -0.18565,-0.17202 -0.61258,-0.25828 l -0.34099,-0.0667 q -0.62653,-0.1252 -0.90638,-0.39157 -0.27985,-0.26637 -0.27952,-0.74049 3.8e-4,-0.54898 0.38599,-0.8648 0.38839,-0.31581 1.06769,-0.31534 0.29113,2e-4 0.59331,0.0531 0.30218,0.0529 0.61819,0.15847 z"
       style="font-style:normal;font-variant:normal;font-weight:normal;font-stretch:normal;font-size:5.67838px;line-height:1.25;font-family:sans-serif;-inkscape-font-specification:sans-serif;letter-spacing:1.06712px;fill:#333333;fill-opacity:1;stroke-width:0.14196"
       id="path697" />
    <path
       d="m 126.94702,156.34127 q -0.41035,-2.8e-4 -0.64902,0.32118 -0.23867,0.31869 -0.23906,0.876 -3.9e-4,0.5573 0.23507,0.87908 0.23822,0.31903 0.65135,0.31931 0.40758,2.9e-4 0.64625,-0.32118 0.23866,-0.32145 0.23905,-0.87598 3.8e-4,-0.55176 -0.23784,-0.87356 -0.23822,-0.32456 -0.6458,-0.32485 z m 3e-4,-0.43253 q 0.66543,4.7e-4 1.04499,0.43326 0.37955,0.4328 0.37902,1.19805 -5.3e-4,0.76247 -0.38068,1.19752 -0.38016,0.43227 -1.04559,0.4318 -0.66821,-4.6e-4 -1.04776,-0.43325 -0.37678,-0.43557 -0.37625,-1.19804 5.3e-4,-0.76525 0.37791,-1.19753 0.38015,-0.43227 1.04836,-0.43181 z"
       style="font-style:normal;font-variant:normal;font-weight:normal;font-stretch:normal;font-size:5.67838px;line-height:1.25;font-family:sans-serif;-inkscape-font-specification:sans-serif;letter-spacing:1.06712px;fill:#333333;fill-opacity:1;stroke-width:0.14196"
       id="path699" />
    <path
       d="m 130.28603,154.77705 0.51016,3.5e-4 -0.003,4.31424 -0.51016,-3.5e-4 z"
       style="font-style:normal;font-variant:normal;font-weight:normal;font-stretch:normal;font-size:5.67838px;line-height:1.25;font-family:sans-serif;-inkscape-font-specification:sans-serif;letter-spacing:1.06712px;fill:#333333;fill-opacity:1;stroke-width:0.14196"
       id="path701" />
    <path
       d="m 132.87595,157.86758 0.001,-1.87986 0.51017,3.5e-4 -0.001,1.86045 q -3.1e-4,0.44085 0.17144,0.66278 0.17176,0.21916 0.51556,0.2194 0.41313,2.8e-4 0.65176,-0.26295 0.2414,-0.26323 0.24172,-0.71795 l 0.001,-1.76063 0.51016,3.5e-4 -0.002,3.10537 -0.51016,-3.6e-4 3.3e-4,-0.4769 q -0.18596,0.28269 -0.43283,0.42114 -0.24408,0.1357 -0.56848,0.13547 -0.53512,-3.7e-4 -0.81215,-0.33328 -0.27704,-0.3329 -0.2766,-0.97338 z m 1.2851,-1.95383 z"
       style="font-style:normal;font-variant:normal;font-weight:normal;font-stretch:normal;font-size:5.67838px;line-height:1.25;font-family:sans-serif;-inkscape-font-specification:sans-serif;letter-spacing:1.06712px;fill:#333333;fill-opacity:1;stroke-width:0.14196"
       id="path703" />
    <path
       d="m 138.10119,155.10964 -6.1e-4,0.8817 1.05083,7.3e-4 -2.8e-4,0.39649 -1.05083,-7.3e-4 -0.001,1.68577 q -2.6e-4,0.37985 0.10225,0.48805 0.10529,0.10821 0.42414,0.10843 l 0.52403,3.7e-4 -3e-4,0.42699 -0.52403,-3.7e-4 q -0.59057,-4.1e-4 -0.81501,-0.2196 -0.22442,-0.22198 -0.22402,-0.80423 l 0.001,-1.68577 -0.37431,-2.6e-4 2.8e-4,-0.39649 0.37431,2.6e-4 6.1e-4,-0.8817 z"
       style="font-style:normal;font-variant:normal;font-weight:normal;font-stretch:normal;font-size:5.67838px;line-height:1.25;font-family:sans-serif;-inkscape-font-specification:sans-serif;letter-spacing:1.06712px;fill:#333333;fill-opacity:1;stroke-width:0.14196"
       id="path705" />
    <path
       d="m 140.8895,155.99327 0.51017,3.5e-4 -0.002,3.10537 -0.51017,-3.5e-4 z m 8.4e-4,-1.20887 0.51017,3.6e-4 -4.5e-4,0.64601 -0.51017,-3.5e-4 z"
       style="font-style:normal;font-variant:normal;font-weight:normal;font-stretch:normal;font-size:5.67838px;line-height:1.25;font-family:sans-serif;-inkscape-font-specification:sans-serif;letter-spacing:1.06712px;fill:#333333;fill-opacity:1;stroke-width:0.14196"
       id="path707" />
    <path
       d="m 144.73735,156.35361 q -0.41036,-2.9e-4 -0.64903,0.32118 -0.23867,0.31868 -0.23905,0.87599 -3.9e-4,0.5573 0.23506,0.87909 0.23823,0.31902 0.65135,0.31931 0.40757,2.8e-4 0.64625,-0.32118 0.23867,-0.32146 0.23906,-0.87599 3.8e-4,-0.55176 -0.23785,-0.87355 -0.23822,-0.32457 -0.64579,-0.32485 z m 3e-4,-0.43253 q 0.66543,4.6e-4 1.04498,0.43325 0.37956,0.43281 0.37902,1.19806 -5.2e-4,0.76247 -0.38069,1.19751 -0.38015,0.43227 -1.04557,0.43181 -0.66821,-4.7e-4 -1.04776,-0.43326 -0.37678,-0.43557 -0.37625,-1.19804 5.3e-4,-0.76525 0.37791,-1.19753 0.38015,-0.43226 1.04836,-0.4318 z"
       style="font-style:normal;font-variant:normal;font-weight:normal;font-stretch:normal;font-size:5.67838px;line-height:1.25;font-family:sans-serif;-inkscape-font-specification:sans-serif;letter-spacing:1.06712px;fill:#333333;fill-opacity:1;stroke-width:0.14196"
       id="path709" />
    <path
       d="m 150.65599,157.2311 -0.001,1.87431 -0.51017,-3.5e-4 0.001,-1.85768 q 3e-4,-0.44085 -0.17145,-0.66001 -0.17175,-0.21916 -0.51556,-0.2194 -0.41312,-2.8e-4 -0.65176,0.26295 -0.23863,0.26325 -0.23894,0.71795 l -0.001,1.75509 -0.51293,-3.5e-4 0.002,-3.10537 0.51293,3.6e-4 -3.3e-4,0.48244 q 0.18319,-0.27992 0.43005,-0.41838 0.24963,-0.13845 0.57403,-0.13823 0.53512,3.7e-4 0.80939,0.33328 0.27426,0.33013 0.27382,0.97339 z"
       style="font-style:normal;font-variant:normal;font-weight:normal;font-stretch:normal;font-size:5.67838px;line-height:1.25;font-family:sans-serif;-inkscape-font-specification:sans-serif;letter-spacing:1.06712px;fill:#333333;fill-opacity:1;stroke-width:0.14196"
       id="path711" />
    <path
       d="m 154.72113,156.09436 -3.4e-4,0.48244 q -0.21619,-0.11106 -0.44905,-0.16667 -0.23286,-0.0556 -0.4824,-0.0557 -0.37985,-2.6e-4 -0.57125,0.11606 -0.18862,0.11632 -0.18879,0.34922 -1.2e-4,0.17745 0.13567,0.28013 0.13579,0.0999 0.54609,0.19169 l 0.17464,0.0389 q 0.54336,0.11683 0.77057,0.33048 0.22999,0.21088 0.22972,0.59074 -3e-4,0.43253 -0.34428,0.6846 -0.34122,0.25207 -0.94011,0.25166 -0.24954,-1.8e-4 -0.52122,-0.0503 -0.26891,-0.0473 -0.56829,-0.14456 l 3.6e-4,-0.52681 q 0.28271,0.14715 0.55715,0.22221 0.27445,0.0723 0.54339,0.0725 0.36045,2.5e-4 0.55461,-0.1216 0.19418,-0.12464 0.19434,-0.34923 1.4e-4,-0.20794 -0.14119,-0.31895 -0.13856,-0.111 -0.61261,-0.21391 l -0.17742,-0.0417 q -0.47405,-0.10013 -0.68463,-0.30547 -0.21058,-0.20809 -0.21033,-0.56854 3e-4,-0.43808 0.31101,-0.67631 0.3107,-0.23823 0.88186,-0.23784 0.28281,2e-4 0.53232,0.042 0.24952,0.0418 0.46018,0.12509 z"
       style="font-style:normal;font-variant:normal;font-weight:normal;font-stretch:normal;font-size:5.67838px;line-height:1.25;font-family:sans-serif;-inkscape-font-specification:sans-serif;letter-spacing:1.06712px;fill:#333333;fill-opacity:1;stroke-width:0.14196"
       id="path713" />
    <path
       d="m 72.712998,142.13198 2.81191,0.002 -0.0061,8.779 4.937269,0.003 -0.0015,2.12537 -7.749178,-0.005 z"
       style="font-style:normal;font-variant:normal;font-weight:bold;font-stretch:normal;font-size:14.9579px;line-height:1.25;font-family:sans-serif;-inkscape-font-specification:'sans-serif Bold';letter-spacing:2.81098px;fill:#333333;fill-opacity:1;stroke-width:0.373947"
       id="path680" />
    <path
       d="m 84.936507,144.86473 2.614709,0.002 -0.0057,8.1801 -2.61471,-0.002 z m 0.0022,-3.1844 2.61471,0.002 -0.0015,2.13267 -2.614709,-0.002 z"
       style="font-style:normal;font-variant:normal;font-weight:bold;font-stretch:normal;font-size:14.9579px;line-height:1.25;font-family:sans-serif;-inkscape-font-specification:'sans-serif Bold';letter-spacing:2.81098px;fill:#333333;fill-opacity:1;stroke-width:0.373947"
       id="path682" />
    <path
       d="m 98.949759,147.10206 q -0.343169,-0.16092 -0.686388,-0.23419 -0.335914,-0.0805 -0.679184,-0.0808 -1.0079,-7e-4 -1.55613,0.64894 -0.540916,0.64235 -0.541751,1.84745 l -0.0026,3.76869 -2.61471,-0.002 0.0057,-8.1801 2.614709,0.002 -9.32e-4,1.34387 q 0.504507,-0.80305 1.15479,-1.16778 0.657588,-0.37203 1.570548,-0.3714 0.13146,9e-5 0.28483,0.0148 0.153375,0.007 0.445489,0.0441 z"
       style="font-style:normal;font-variant:normal;font-weight:bold;font-stretch:normal;font-size:14.9579px;line-height:1.25;font-family:sans-serif;-inkscape-font-specification:'sans-serif Bold';letter-spacing:2.81098px;fill:#333333;fill-opacity:1;stroke-width:0.373947"
       id="path684" />
    <path
       d="m 103.06233,144.87729 2.61471,0.002 -0.006,8.18009 -2.61471,-0.002 z m 0.002,-3.1844 2.61471,0.002 -0.001,2.13267 -2.61471,-0.002 z"
       style="font-style:normal;font-variant:normal;font-weight:bold;font-stretch:normal;font-size:14.9579px;line-height:1.25;font-family:sans-serif;-inkscape-font-specification:'sans-serif Bold';letter-spacing:2.81098px;fill:#333333;fill-opacity:1;stroke-width:0.373947"
       id="path686" />
    <path
       d="m 109.81917,142.15771 10.04984,0.007 -0.001,2.12537 -3.61531,-0.002 -0.006,8.779 -2.81191,-0.002 0.006,-8.779 -3.62261,-0.003 z"
       style="font-style:normal;font-variant:normal;font-weight:bold;font-stretch:normal;font-size:14.9579px;line-height:1.25;font-family:sans-serif;-inkscape-font-specification:'sans-serif Bold';letter-spacing:2.81098px;fill:#333333;fill-opacity:1;stroke-width:0.373947"
       id="path688" />
    <path
       d="m 130.19075,148.96424 -5.2e-4,0.74497 -6.11316,-0.004 q 0.0943,0.92033 0.66367,1.38085 0.56937,0.46054 1.59188,0.46125 0.82531,5.7e-4 1.68731,-0.23986 0.86931,-0.24772 1.78262,-0.74374 l -0.001,2.01581 q -0.92781,0.34994 -1.8555,0.52459 -0.92769,0.18194 -1.85525,0.1813 -2.22032,-0.002 -3.45386,-1.12716 -1.22623,-1.13292 -1.22481,-3.17064 0.001,-2.0012 1.20728,-3.14705 1.2132,-1.14583 3.33126,-1.14436 1.92817,0.001 3.08135,1.16342 1.16047,1.16208 1.15913,3.10486 z m -2.68715,-0.871 q 5.1e-4,-0.74497 -0.43739,-1.1981 -0.43059,-0.46043 -1.13174,-0.46092 -0.75958,-5.3e-4 -1.23462,0.43006 -0.47503,0.42329 -0.59245,1.2266 z"
       style="font-style:normal;font-variant:normal;font-weight:bold;font-stretch:normal;font-size:14.9579px;line-height:1.25;font-family:sans-serif;-inkscape-font-specification:'sans-serif Bold';letter-spacing:2.81098px;fill:#333333;fill-opacity:1;stroke-width:0.373947"
       id="path690" />
    <path
       d="m 141.59348,145.15964 -0.001,2.13267 q -0.53292,-0.36556 -1.07327,-0.54122 -0.53305,-0.17566 -1.11004,-0.17606 -1.09554,-7.6e-4 -1.70949,0.64154 -0.60665,0.635 -0.60745,1.78167 -7.9e-4,1.14668 0.60497,1.78982 0.61307,0.63584 1.70861,0.6366 0.61351,4.3e-4 1.16142,-0.18178 0.5552,-0.18221 1.02288,-0.53976 l -0.001,2.13996 q -0.61367,0.22599 -1.24916,0.33511 -0.62819,0.11642 -1.26361,0.11598 -2.21301,-0.002 -3.46116,-1.13447 -1.24813,-1.14023 -1.24673,-3.16335 0.001,-2.02311 1.25111,-3.15432 1.24972,-1.1385 3.46273,-1.13697 0.64272,4.5e-4 1.26345,0.11774 0.62804,0.10999 1.2487,0.33684 z"
       style="font-style:normal;font-variant:normal;font-weight:bold;font-stretch:normal;font-size:14.9579px;line-height:1.25;font-family:sans-serif;-inkscape-font-specification:'sans-serif Bold';letter-spacing:2.81098px;fill:#333333;fill-opacity:1;stroke-width:0.373947"
       id="path692" />
    <path
       d="m 154.88316,148.11222 -0.003,4.9811 -2.62932,-0.002 5.6e-4,-0.81071 0.002,-2.98719 q 7.5e-4,-1.07364 -0.0501,-1.47538 -0.0435,-0.40174 -0.16027,-0.59171 -0.15321,-0.25573 -0.41604,-0.39469 -0.26283,-0.14625 -0.5988,-0.14648 -0.81801,-5.7e-4 -1.28589,0.63453 -0.46787,0.62778 -0.46864,1.74524 l -0.003,4.02432 -2.61471,-0.002 0.008,-11.3645 2.61471,0.002 -0.003,4.3822 q 0.5921,-0.71535 1.25696,-1.05086 0.66487,-0.34281 1.46828,-0.34225 1.41691,9.8e-4 2.14666,0.87063 0.73707,0.86964 0.73592,2.52757 z"
       style="font-style:normal;font-variant:normal;font-weight:bold;font-stretch:normal;font-size:14.9579px;line-height:1.25;font-family:sans-serif;-inkscape-font-specification:'sans-serif Bold';letter-spacing:2.81098px;fill:#333333;fill-opacity:1;stroke-width:0.373947"
       id="path694" />
  </g>
</svg>
